<svg version="1.1" id="Layer_1" xmlns="http://www.w3.org/2000/svg" xmlns:xlink="http://www.w3.org/1999/xlink" x="0px" y="0px"
	 width="100%" viewBox="0 0 452 452" enable-background="new 0 0 452 452" xml:space="preserve">
<path fill="#FEFEFE" opacity="1.000000" stroke="none" 
	d="
M1.000000,170.000000 
	C1.000000,113.333351 1.000000,57.166698 1.000000,1.000038 
	C151.666611,1.000025 302.333221,1.000025 452.999878,1.000013 
	C452.999908,151.666565 452.999908,302.333130 452.999939,452.999756 
	C302.333496,452.999847 151.666977,452.999847 1.000227,452.999939 
	C1.000000,358.833344 1.000000,264.666656 1.000000,170.000000 
M350.548218,120.890350 
	C354.884644,119.784500 356.055511,116.735611 356.028015,112.603050 
	C355.931580,98.118599 356.059143,83.632706 355.974335,69.148117 
	C355.773651,34.869678 328.985901,8.088845 294.672058,8.019006 
	C248.719574,7.925478 202.766617,7.929373 156.814102,8.017820 
	C122.917686,8.083063 96.275169,34.236496 95.585495,68.189774 
	C95.284622,83.001816 95.593948,97.825371 95.479134,112.642563 
	C95.442703,117.344734 97.280655,120.273300 101.938843,122.106621 
	C101.951187,125.959190 101.963524,129.811768 101.258568,133.900101 
	C96.860748,134.834503 95.476715,137.848846 95.499161,141.991486 
	C95.550629,151.491043 95.513344,160.991104 95.512215,170.490952 
	C95.511948,172.710419 95.512177,174.929901 95.512177,176.115692 
	C84.541382,176.115692 74.408867,176.075394 64.276794,176.125443 
	C50.273624,176.194626 41.156006,185.286316 41.125259,199.284760 
	C41.076569,221.450974 41.086700,243.617416 41.123547,265.783661 
	C41.143372,277.709717 44.207146,288.776031 50.443272,299.008057 
	C51.670216,301.021210 52.427429,303.560608 52.624012,305.922028 
	C53.737831,319.301422 62.179958,330.487030 74.889900,334.441864 
	C77.751488,335.332275 78.907906,336.328857 78.854065,339.468628 
	C78.713982,347.636658 82.522720,353.751740 89.410538,358.095581 
	C90.497360,358.780975 91.885422,360.145111 91.895851,361.207581 
	C92.054169,377.341034 92.005836,393.476532 92.005836,409.455719 
	C82.330505,412.707123 78.804886,417.602661 78.761284,427.392365 
	C78.753113,429.225372 78.711494,431.062317 78.807129,432.891052 
	C79.243950,441.244202 85.507751,447.816559 93.881851,447.922668 
	C111.212044,448.142273 128.547760,448.086578 145.879517,447.942719 
	C152.714050,447.885986 159.262009,443.426208 160.371475,436.986328 
	C162.759109,423.127167 162.046341,414.620056 148.353104,409.238007 
	C148.353104,393.139374 148.353104,377.051208 148.353104,360.945862 
	C200.108643,360.945862 251.537964,360.945862 303.434448,360.945862 
	C303.434448,376.662109 303.462952,392.117493 303.356567,407.571960 
	C303.350800,408.410339 302.390625,409.695374 301.580963,410.005341 
	C292.777954,413.376068 289.976379,420.037384 290.182800,428.975433 
	C290.485168,442.069366 296.106140,447.998352 309.024872,448.004486 
	C324.191315,448.011719 339.357727,448.014862 354.524170,448.003143 
	C364.648773,447.995300 371.098602,443.710114 372.427460,434.956024 
	C374.140625,423.670319 372.815369,415.072144 362.499451,410.281189 
	C361.159729,409.658966 359.667633,407.592804 359.647217,406.175323 
	C359.438324,391.678528 359.437744,377.176483 359.636871,362.679443 
	C359.658447,361.108826 361.132080,359.425049 362.230133,358.027893 
	C365.251617,354.183167 369.067322,350.804993 371.339813,346.581055 
	C373.039337,343.421997 372.829651,339.235779 373.468811,335.506714 
	C389.530151,330.677826 397.664764,320.655396 399.002869,304.313843 
	C399.142700,302.606049 399.940796,300.816040 400.862518,299.330383 
	C406.985168,289.461853 410.222534,278.762970 410.251495,267.155365 
	C410.308838,244.155914 410.384918,221.155609 410.242828,198.156952 
	C410.162750,185.199173 401.054382,176.271362 388.092804,176.139679 
	C377.499786,176.032059 366.904785,176.117783 355.994080,176.117783 
	C355.994080,165.475754 355.887909,153.990219 356.045990,142.508331 
	C356.109802,137.874405 354.597504,134.755096 349.868408,132.837662 
	C349.857697,128.947342 349.846985,125.057037 350.548218,120.890350 
z"/>
<path fill="#F43B45" opacity="1.000000" stroke="none" 
	d="
M101.975868,133.664337 
	C101.963524,129.811768 101.951187,125.959190 102.311913,121.528503 
	C107.237526,120.135963 108.357643,117.001831 108.342018,112.894775 
	C108.289444,99.067696 108.174339,85.238190 108.362679,71.413422 
	C108.729889,44.459000 124.563957,25.555920 150.066437,21.457952 
	C152.679184,21.038115 155.374603,21.004660 158.031479,21.006763 
	C198.010422,21.038412 237.989365,21.106112 278.152985,21.442377 
	C283.288361,26.036854 288.683136,29.947763 293.090637,34.762470 
	C300.595886,42.961102 304.911102,52.930614 304.935822,64.116600 
	C305.077881,128.394150 304.999420,192.672195 304.531799,257.020020 
	C239.019058,257.089935 173.970261,257.089935 108.489136,257.089935 
	C108.489136,254.519455 108.489159,252.549515 108.489136,250.579559 
	C108.488693,214.948364 108.464874,179.317123 108.515053,143.686005 
	C108.521927,138.801758 107.839836,134.604996 101.975868,133.664337 
z"/>
<path fill="#050303" opacity="1.000000" stroke="none" 
	d="
M101.617218,133.782227 
	C107.839836,134.604996 108.521927,138.801758 108.515053,143.686005 
	C108.464874,179.317123 108.488693,214.948364 108.489136,250.579559 
	C108.489159,252.549515 108.489136,254.519455 108.489136,257.089935 
	C173.970261,257.089935 239.019058,257.089935 304.995605,257.094147 
	C318.160278,257.098358 330.397247,257.098358 343.044189,257.098358 
	C343.044189,254.490524 343.044189,252.525696 343.044189,250.560867 
	C343.044586,214.651321 343.076294,178.741730 343.008972,142.832306 
	C342.999725,137.898865 344.292694,134.304245 349.844238,133.715057 
	C354.597504,134.755096 356.109802,137.874405 356.045990,142.508331 
	C355.887909,153.990219 355.994080,165.475754 355.994080,176.117783 
	C366.904785,176.117783 377.499786,176.032059 388.092804,176.139679 
	C401.054382,176.271362 410.162750,185.199173 410.242828,198.156952 
	C410.384918,221.155609 410.308838,244.155914 410.251495,267.155365 
	C410.222534,278.762970 406.985168,289.461853 400.862518,299.330383 
	C399.940796,300.816040 399.142700,302.606049 399.002869,304.313843 
	C397.664764,320.655396 389.530151,330.677826 373.469452,335.506836 
	C372.829651,339.235779 373.039337,343.421997 371.339813,346.581055 
	C369.067322,350.804993 365.251617,354.183167 362.230133,358.027893 
	C361.132080,359.425049 359.658447,361.108826 359.636871,362.679443 
	C359.437744,377.176483 359.438324,391.678528 359.647217,406.175323 
	C359.667633,407.592804 361.159729,409.658966 362.499451,410.281189 
	C372.815369,415.072144 374.140625,423.670319 372.427460,434.956024 
	C371.098602,443.710114 364.648773,447.995300 354.524170,448.003143 
	C339.357727,448.014862 324.191315,448.011719 309.024872,448.004486 
	C296.106140,447.998352 290.485168,442.069366 290.182800,428.975433 
	C289.976379,420.037384 292.777954,413.376068 301.580963,410.005341 
	C302.390625,409.695374 303.350800,408.410339 303.356567,407.571960 
	C303.462952,392.117493 303.434448,376.662109 303.434448,360.945862 
	C251.537964,360.945862 200.108643,360.945862 148.353104,360.945862 
	C148.353104,377.051208 148.353104,393.139374 148.353104,409.238007 
	C162.046341,414.620056 162.759109,423.127167 160.371475,436.986328 
	C159.262009,443.426208 152.714050,447.885986 145.879517,447.942719 
	C128.547760,448.086578 111.212044,448.142273 93.881851,447.922668 
	C85.507751,447.816559 79.243950,441.244202 78.807129,432.891052 
	C78.711494,431.062317 78.753113,429.225372 78.761284,427.392365 
	C78.804886,417.602661 82.330505,412.707123 92.005836,409.455719 
	C92.005836,393.476532 92.054169,377.341034 91.895851,361.207581 
	C91.885422,360.145111 90.497360,358.780975 89.410538,358.095581 
	C82.522720,353.751740 78.713982,347.636658 78.854065,339.468628 
	C78.907906,336.328857 77.751488,335.332275 74.889900,334.441864 
	C62.179958,330.487030 53.737831,319.301422 52.624012,305.922028 
	C52.427429,303.560608 51.670216,301.021210 50.443272,299.008057 
	C44.207146,288.776031 41.143372,277.709717 41.123547,265.783661 
	C41.086700,243.617416 41.076569,221.450974 41.125259,199.284760 
	C41.156006,185.286316 50.273624,176.194626 64.276794,176.125443 
	C74.408867,176.075394 84.541382,176.115692 95.512177,176.115692 
	C95.512177,174.929901 95.511948,172.710419 95.512215,170.490952 
	C95.513344,160.991104 95.550629,151.491043 95.499161,141.991486 
	C95.476715,137.848846 96.860748,134.834503 101.617218,133.782227 
M344.500000,323.097046 
	C351.496674,323.095703 358.493866,323.148438 365.489899,323.081665 
	C379.632599,322.946747 388.262238,312.287170 385.483124,298.459564 
	C381.930359,280.782684 368.518463,270.088959 349.646454,270.082062 
	C271.018219,270.053253 192.389999,270.069122 113.761780,270.070282 
	C108.930878,270.070343 104.096420,269.967468 99.269737,270.114105 
	C83.364799,270.597260 70.391586,280.832489 66.530174,296.107208 
	C64.706223,303.322266 64.977417,310.343048 70.129784,316.406281 
	C74.739372,321.830750 80.788841,323.153625 87.625137,323.147339 
	C172.916702,323.069183 258.208374,323.096710 344.500000,323.097046 
M84.480659,259.831696 
	C86.556816,259.236359 88.628181,258.165924 90.710136,258.144928 
	C95.000977,258.101624 95.849648,256.048157 95.745079,252.190857 
	C95.496910,243.036102 95.668816,233.870056 95.664207,224.708572 
	C95.659851,216.046921 95.819603,207.380508 95.581169,198.725174 
	C95.401604,192.206848 92.197952,189.131012 85.994499,189.050552 
	C78.500015,188.953323 71.001938,188.940964 63.507992,189.057419 
	C57.671452,189.148117 54.100986,192.580399 54.083473,198.405457 
	C54.012371,222.058136 53.964668,245.712646 54.222740,269.363037 
	C54.270569,273.746490 55.770794,278.114075 56.600689,282.488983 
	C63.842609,271.893555 72.232971,264.156921 84.480659,259.831696 
M337.499969,336.009399 
	C255.753098,336.009399 174.006226,336.009399 92.357872,336.009399 
	C91.331131,344.924835 94.091621,347.907684 102.688522,347.909760 
	C164.852829,347.924927 227.017120,347.918457 289.181427,347.918335 
	C309.513977,347.918304 329.846710,347.958862 350.179047,347.892700 
	C357.355774,347.869354 360.645264,343.689209 359.252625,336.009399 
	C352.412415,336.009399 345.456146,336.009399 337.499969,336.009399 
M382.405396,189.027817 
	C377.239685,189.028503 372.073853,189.006104 366.908295,189.035248 
	C358.950470,189.080139 356.024597,191.954346 356.010101,199.873840 
	C355.977509,217.703705 355.991302,235.533691 356.015198,253.363586 
	C356.016876,254.628967 356.254974,255.894012 356.406403,257.389099 
	C373.237122,259.433319 385.476562,268.241669 394.728882,283.773468 
	C395.735168,278.437317 396.954834,274.884186 396.988831,271.319733 
	C397.222504,246.827698 397.274567,222.333145 397.221924,197.839737 
	C397.210266,192.427765 393.797729,189.333817 388.366882,189.056427 
	C386.704620,188.971542 385.034912,189.033264 382.405396,189.027817 
M346.888885,398.470337 
	C346.888885,393.486633 346.963989,388.501526 346.870209,383.519592 
	C346.748657,377.061340 346.676758,370.589874 346.127319,364.163116 
	C346.026520,362.984222 343.784698,361.108978 342.472717,361.057953 
	C334.842590,360.761383 327.194183,360.978577 319.553864,360.878052 
	C316.966797,360.844025 316.057220,361.834473 316.071167,364.393707 
	C316.146423,378.181519 316.059509,391.970459 316.197876,405.757263 
	C316.208954,406.859955 317.480682,408.887146 318.202606,408.903625 
	C327.591339,409.117645 336.986603,409.045563 346.888580,409.045563 
	C346.888580,405.362885 346.888580,402.409485 346.888885,398.470337 
M112.573730,360.913757 
	C110.167313,360.913757 107.760887,360.913757 105.314606,360.913757 
	C105.314606,377.374542 105.314606,392.936401 105.314606,408.649078 
	C115.316933,408.649078 124.987534,408.649078 134.694855,408.649078 
	C134.694855,392.633881 134.694855,377.073090 134.694855,360.913513 
	C127.433823,360.913513 120.493347,360.913513 112.573730,360.913757 
M341.496643,422.086853 
	C330.357361,422.087799 319.217743,422.137238 308.078918,422.067230 
	C303.212311,422.036652 303.015900,425.148987 303.009827,428.783203 
	C303.003845,432.358154 303.563141,435.041992 308.043640,435.022552 
	C323.671600,434.954681 339.300232,434.952759 354.928192,435.023834 
	C359.378784,435.044067 360.022125,432.432190 360.000610,428.821838 
	C359.979034,425.207275 359.839905,421.998108 354.963287,422.075989 
	C350.807892,422.142334 346.650604,422.087982 341.496643,422.086853 
M147.867325,433.024017 
	C147.941559,432.030273 148.067688,431.037292 148.081787,430.042694 
	C148.193359,422.174316 148.106384,422.091125 139.987854,422.089600 
	C125.827728,422.086914 111.665543,422.228821 97.508514,422.019867 
	C92.102798,421.940155 91.857025,424.930328 91.823563,429.057678 
	C91.790787,433.100952 92.621262,435.161163 97.321648,435.086670 
	C112.477509,434.846405 127.639763,435.030945 142.798950,434.945770 
	C144.351486,434.937042 145.900009,434.215485 147.867325,433.024017 
z"/>
<path fill="#D82B2B" opacity="1.000000" stroke="none" 
	d="
M349.856323,133.276367 
	C344.292694,134.304245 342.999725,137.898865 343.008972,142.832306 
	C343.076294,178.741730 343.044586,214.651321 343.044189,250.560867 
	C343.044189,252.525696 343.044189,254.490524 343.044189,257.098358 
	C330.397247,257.098358 318.160278,257.098358 305.459534,257.024231 
	C304.999420,192.672195 305.077881,128.394150 304.935822,64.116600 
	C304.911102,52.930614 300.595886,42.961102 293.090637,34.762470 
	C288.683136,29.947763 283.288361,26.036854 278.618927,21.368275 
	C283.885895,21.008598 288.871765,20.968952 293.857269,20.996660 
	C322.252716,21.154478 342.890717,41.747898 343.032074,70.126434 
	C343.102448,84.252609 343.121155,98.379997 343.009125,112.505615 
	C342.970306,117.395821 344.731018,120.507637 349.836273,121.166725 
	C349.846985,125.057037 349.857697,128.947342 349.856323,133.276367 
z"/>
<path fill="#040303" opacity="1.000000" stroke="none" 
	d="
M350.192261,121.028534 
	C344.731018,120.507637 342.970306,117.395821 343.009125,112.505615 
	C343.121155,98.379997 343.102448,84.252609 343.032074,70.126434 
	C342.890717,41.747898 322.252716,21.154478 293.857269,20.996660 
	C288.871765,20.968952 283.885895,21.008598 278.434235,21.091240 
	C237.989365,21.106112 198.010422,21.038412 158.031479,21.006763 
	C155.374603,21.004660 152.679184,21.038115 150.066437,21.457952 
	C124.563957,25.555920 108.729889,44.459000 108.362679,71.413422 
	C108.174339,85.238190 108.289444,99.067696 108.342018,112.894775 
	C108.357643,117.001831 107.237526,120.135963 102.330597,121.082687 
	C97.280655,120.273300 95.442703,117.344734 95.479134,112.642563 
	C95.593948,97.825371 95.284622,83.001816 95.585495,68.189774 
	C96.275169,34.236496 122.917686,8.083063 156.814102,8.017820 
	C202.766617,7.929373 248.719574,7.925478 294.672058,8.019006 
	C328.985901,8.088845 355.773651,34.869678 355.974335,69.148117 
	C356.059143,83.632706 355.931580,98.118599 356.028015,112.603050 
	C356.055511,116.735611 354.884644,119.784500 350.192261,121.028534 
z"/>
<path fill="#FE4A5B" opacity="1.000000" stroke="none" 
	d="
M344.000000,323.097076 
	C258.208374,323.096710 172.916702,323.069183 87.625137,323.147339 
	C80.788841,323.153625 74.739372,321.830750 70.129784,316.406281 
	C64.977417,310.343048 64.706223,303.322266 66.530174,296.107208 
	C70.391586,280.832489 83.364799,270.597260 99.269737,270.114105 
	C104.096420,269.967468 108.930878,270.070343 113.761780,270.070282 
	C192.389999,270.069122 271.018219,270.053253 349.646454,270.082062 
	C368.518463,270.088959 381.930359,280.782684 385.483124,298.459564 
	C388.262238,312.287170 379.632599,322.946747 365.489899,323.081665 
	C358.493866,323.148438 351.496674,323.095703 344.000000,323.097076 
z"/>
<path fill="#D42A2A" opacity="1.000000" stroke="none" 
	d="
M84.104263,259.948517 
	C72.232971,264.156921 63.842609,271.893555 56.600689,282.488983 
	C55.770794,278.114075 54.270569,273.746490 54.222740,269.363037 
	C53.964668,245.712646 54.012371,222.058136 54.083473,198.405457 
	C54.100986,192.580399 57.671452,189.148117 63.507992,189.057419 
	C71.001938,188.940964 78.500015,188.953323 85.994499,189.050552 
	C92.197952,189.131012 95.401604,192.206848 95.581169,198.725174 
	C95.819603,207.380508 95.659851,216.046921 95.664207,224.708572 
	C95.668816,233.870056 95.496910,243.036102 95.745079,252.190857 
	C95.849648,256.048157 95.000977,258.101624 90.710136,258.144928 
	C88.628181,258.165924 86.556816,259.236359 84.104263,259.948517 
z"/>
<path fill="#32545F" opacity="1.000000" stroke="none" 
	d="
M337.999939,336.009399 
	C345.456146,336.009399 352.412415,336.009399 359.252625,336.009399 
	C360.645264,343.689209 357.355774,347.869354 350.179047,347.892700 
	C329.846710,347.958862 309.513977,347.918304 289.181427,347.918335 
	C227.017120,347.918457 164.852829,347.924927 102.688522,347.909760 
	C94.091621,347.907684 91.331131,344.924835 92.357872,336.009399 
	C174.006226,336.009399 255.753098,336.009399 337.999939,336.009399 
z"/>
<path fill="#F23A44" opacity="1.000000" stroke="none" 
	d="
M382.886993,189.027832 
	C385.034912,189.033264 386.704620,188.971542 388.366882,189.056427 
	C393.797729,189.333817 397.210266,192.427765 397.221924,197.839737 
	C397.274567,222.333145 397.222504,246.827698 396.988831,271.319733 
	C396.954834,274.884186 395.735168,278.437317 394.728882,283.773468 
	C385.476562,268.241669 373.237122,259.433319 356.406403,257.389099 
	C356.254974,255.894012 356.016876,254.628967 356.015198,253.363586 
	C355.991302,235.533691 355.977509,217.703705 356.010101,199.873840 
	C356.024597,191.954346 358.950470,189.080139 366.908295,189.035248 
	C372.073853,189.006104 377.239685,189.028503 382.886993,189.027832 
z"/>
<path fill="#1D454F" opacity="1.000000" stroke="none" 
	d="
M346.888733,398.963196 
	C346.888580,402.409485 346.888580,405.362885 346.888580,409.045563 
	C336.986603,409.045563 327.591339,409.117645 318.202606,408.903625 
	C317.480682,408.887146 316.208954,406.859955 316.197876,405.757263 
	C316.059509,391.970459 316.146423,378.181519 316.071167,364.393707 
	C316.057220,361.834473 316.966797,360.844025 319.553864,360.878052 
	C327.194183,360.978577 334.842590,360.761383 342.472717,361.057953 
	C343.784698,361.108978 346.026520,362.984222 346.127319,364.163116 
	C346.676758,370.589874 346.748657,377.061340 346.870209,383.519592 
	C346.963989,388.501526 346.888885,393.486633 346.888733,398.963196 
z"/>
<path fill="#1E4751" opacity="1.000000" stroke="none" 
	d="
M113.063301,360.913635 
	C120.493347,360.913513 127.433823,360.913513 134.694855,360.913513 
	C134.694855,377.073090 134.694855,392.633881 134.694855,408.649078 
	C124.987534,408.649078 115.316933,408.649078 105.314606,408.649078 
	C105.314606,392.936401 105.314606,377.374542 105.314606,360.913757 
	C107.760887,360.913757 110.167313,360.913757 113.063301,360.913635 
z"/>
<path fill="#1D454E" opacity="1.000000" stroke="none" 
	d="
M341.995392,422.086945 
	C346.650604,422.087982 350.807892,422.142334 354.963287,422.075989 
	C359.839905,421.998108 359.979034,425.207275 360.000610,428.821838 
	C360.022125,432.432190 359.378784,435.044067 354.928192,435.023834 
	C339.300232,434.952759 323.671600,434.954681 308.043640,435.022552 
	C303.563141,435.041992 303.003845,432.358154 303.009827,428.783203 
	C303.015900,425.148987 303.212311,422.036652 308.078918,422.067230 
	C319.217743,422.137238 330.357361,422.087799 341.995392,422.086945 
z"/>
<path fill="#1D454F" opacity="1.000000" stroke="none" 
	d="
M147.658859,433.424377 
	C145.900009,434.215485 144.351486,434.937042 142.798950,434.945770 
	C127.639763,435.030945 112.477509,434.846405 97.321648,435.086670 
	C92.621262,435.161163 91.790787,433.100952 91.823563,429.057678 
	C91.857025,424.930328 92.102798,421.940155 97.508514,422.019867 
	C111.665543,422.228821 125.827728,422.086914 139.987854,422.089600 
	C148.106384,422.091125 148.193359,422.174316 148.081787,430.042694 
	C148.067688,431.037292 147.941559,432.030273 147.658859,433.424377 
z"/>
</svg>