<svg version="1.1" id="Layer_1" xmlns="http://www.w3.org/2000/svg" xmlns:xlink="http://www.w3.org/1999/xlink" x="0px" y="0px"
	 width="100%" viewBox="0 0 301 309" enable-background="new 0 0 301 309" xml:space="preserve">
<path fill="#F6F6F6" opacity="1.000000" stroke="none" 
	d="
M163.000000,310.000000 
	C108.666695,310.000000 54.833385,310.000000 1.000058,310.000000 
	C1.000039,207.000076 1.000039,104.000153 1.000019,1.000168 
	C101.333214,1.000112 201.666428,1.000112 301.999725,1.000056 
	C301.999817,103.999825 301.999817,206.999649 301.999908,309.999756 
	C255.833328,310.000000 209.666672,310.000000 163.000000,310.000000 
M129.500000,297.001221 
	C172.995300,297.001129 216.490677,297.048615 259.985870,296.977295 
	C277.171173,296.949127 290.700775,284.704041 290.859680,268.193909 
	C291.190033,233.867966 291.156677,199.534698 290.854858,165.208130 
	C290.711456,148.897202 280.156769,134.694153 264.964569,129.555679 
	C261.474762,128.375320 260.905090,126.712074 260.935699,123.504265 
	C261.081909,108.174011 261.012543,92.841583 260.998657,77.509941 
	C260.971649,47.648876 240.370285,27.036022 210.440811,27.008289 
	C170.445251,26.971230 130.449585,26.966379 90.454018,27.010614 
	C61.835918,27.042265 41.073929,47.854286 41.005962,76.504951 
	C40.968014,92.503105 41.067459,108.502197 40.886974,124.498405 
	C40.869884,126.013069 39.646210,128.359985 38.383690,128.887863 
	C19.429096,136.813141 11.013137,149.174362 11.002840,169.702545 
	C10.986959,201.365738 10.979378,233.028931 11.005662,264.692108 
	C11.022130,284.529419 23.557371,296.979980 43.509342,296.995667 
	C71.839546,297.017883 100.169777,297.001251 129.500000,297.001221 
z"/>
<path fill="#010101" opacity="1.000000" stroke="none" 
	d="
M129.000000,297.001221 
	C100.169777,297.001251 71.839546,297.017883 43.509342,296.995667 
	C23.557371,296.979980 11.022130,284.529419 11.005662,264.692108 
	C10.979378,233.028931 10.986959,201.365738 11.002840,169.702545 
	C11.013137,149.174362 19.429096,136.813141 38.383690,128.887863 
	C39.646210,128.359985 40.869884,126.013069 40.886974,124.498405 
	C41.067459,108.502197 40.968014,92.503105 41.005962,76.504951 
	C41.073929,47.854286 61.835918,27.042265 90.454018,27.010614 
	C130.449585,26.966379 170.445251,26.971230 210.440811,27.008289 
	C240.370285,27.036022 260.971649,47.648876 260.998657,77.509941 
	C261.012543,92.841583 261.081909,108.174011 260.935699,123.504265 
	C260.905090,126.712074 261.474762,128.375320 264.964569,129.555679 
	C280.156769,134.694153 290.711456,148.897202 290.854858,165.208130 
	C291.156677,199.534698 291.190033,233.867966 290.859680,268.193909 
	C290.700775,284.704041 277.171173,296.949127 259.985870,296.977295 
	C216.490677,297.048615 172.995300,297.001129 129.000000,297.001221 
M240.998444,102.500000 
	C240.998154,93.674316 241.039185,84.848389 240.988708,76.022995 
	C240.892609,59.216686 228.936478,47.085308 212.013870,47.039459 
	C171.049454,46.928467 130.084381,46.935509 89.119934,47.038261 
	C73.180443,47.078243 61.131245,59.287128 61.027794,75.282181 
	C60.921173,91.767288 61.002602,108.253624 61.001766,124.739418 
	C61.001709,125.844940 61.001759,126.950462 61.001759,128.109497 
	C71.771393,131.251205 79.871346,137.150162 85.490067,146.432861 
	C91.179901,155.833038 91.232063,166.271408 90.978157,176.760132 
	C131.235550,176.760132 170.947372,176.760132 210.998383,176.760132 
	C210.998383,174.231308 210.995102,171.935913 210.998886,169.640503 
	C211.032761,149.163651 219.409302,136.844589 238.412216,128.900299 
	C239.610825,128.399216 240.836273,126.347794 240.883408,124.977531 
	C241.129471,117.825500 240.998352,110.660492 240.998444,102.500000 
M176.500000,276.997955 
	C187.926697,276.997955 199.353394,276.997955 210.699921,276.997955 
	C210.699921,250.011536 210.699921,223.616531 210.699921,197.297150 
	C170.676941,197.297150 130.952652,197.297150 91.299995,197.297150 
	C91.299995,223.988266 91.299995,250.383270 91.299995,276.997955 
	C119.564888,276.997955 147.532440,276.997955 176.500000,276.997955 
M31.000824,204.500000 
	C31.000839,224.827576 30.977541,245.155197 31.014050,265.482697 
	C31.026142,272.216248 34.411488,276.698669 40.299255,276.875183 
	C50.403114,277.178101 60.522629,276.958923 70.998253,276.958923 
	C70.998253,275.760254 70.998260,274.967621 70.998260,274.174988 
	C70.998199,238.685059 71.046112,203.195038 70.971985,167.705276 
	C70.946114,155.321976 62.649097,146.946625 50.845608,147.019012 
	C39.083874,147.091141 31.086628,155.497635 31.015623,168.010162 
	C30.948494,179.839752 31.000959,191.670029 31.000824,204.500000 
M235.628632,276.999176 
	C243.793564,276.998962 251.959457,277.076935 260.123108,276.974426 
	C266.997070,276.888153 270.961975,272.958618 270.972778,266.053833 
	C271.024567,232.894333 271.091614,199.734161 270.922211,166.575409 
	C270.864044,155.184631 262.403351,147.119034 251.212708,147.018951 
	C239.789581,146.916824 231.119110,155.060272 231.069550,166.645859 
	C230.916962,202.304306 231.046143,237.963898 230.929626,273.622589 
	C230.919678,276.667633 232.040146,277.390106 235.628632,276.999176 
z"/>
<path fill="#F7F7F7" opacity="1.000000" stroke="none" 
	d="
M240.998444,103.000000 
	C240.998352,110.660492 241.129471,117.825500 240.883408,124.977531 
	C240.836273,126.347794 239.610825,128.399216 238.412216,128.900299 
	C219.409302,136.844589 211.032761,149.163651 210.998886,169.640503 
	C210.995102,171.935913 210.998383,174.231308 210.998383,176.760132 
	C170.947372,176.760132 131.235550,176.760132 90.978157,176.760132 
	C91.232063,166.271408 91.179901,155.833038 85.490067,146.432861 
	C79.871346,137.150162 71.771393,131.251205 61.001759,128.109497 
	C61.001759,126.950462 61.001709,125.844940 61.001766,124.739418 
	C61.002602,108.253624 60.921173,91.767288 61.027794,75.282181 
	C61.131245,59.287128 73.180443,47.078243 89.119934,47.038261 
	C130.084381,46.935509 171.049454,46.928467 212.013870,47.039459 
	C228.936478,47.085308 240.892609,59.216686 240.988708,76.022995 
	C241.039185,84.848389 240.998154,93.674316 240.998444,103.000000 
z"/>
<path fill="#F7F7F7" opacity="1.000000" stroke="none" 
	d="
M176.000000,276.997955 
	C147.532440,276.997955 119.564888,276.997955 91.299995,276.997955 
	C91.299995,250.383270 91.299995,223.988266 91.299995,197.297150 
	C130.952652,197.297150 170.676941,197.297150 210.699921,197.297150 
	C210.699921,223.616531 210.699921,250.011536 210.699921,276.997955 
	C199.353394,276.997955 187.926697,276.997955 176.000000,276.997955 
z"/>
<path fill="#F6F6F6" opacity="1.000000" stroke="none" 
	d="
M31.000824,204.000000 
	C31.000959,191.670029 30.948494,179.839752 31.015623,168.010162 
	C31.086628,155.497635 39.083874,147.091141 50.845608,147.019012 
	C62.649097,146.946625 70.946114,155.321976 70.971985,167.705276 
	C71.046112,203.195038 70.998199,238.685059 70.998260,274.174988 
	C70.998260,274.967621 70.998253,275.760254 70.998253,276.958923 
	C60.522629,276.958923 50.403114,277.178101 40.299255,276.875183 
	C34.411488,276.698669 31.026142,272.216248 31.014050,265.482697 
	C30.977541,245.155197 31.000839,224.827576 31.000824,204.000000 
z"/>
<path fill="#F6F6F6" opacity="1.000000" stroke="none" 
	d="
M235.143890,276.999084 
	C232.040146,277.390106 230.919678,276.667633 230.929626,273.622589 
	C231.046143,237.963898 230.916962,202.304306 231.069550,166.645859 
	C231.119110,155.060272 239.789581,146.916824 251.212708,147.018951 
	C262.403351,147.119034 270.864044,155.184631 270.922211,166.575409 
	C271.091614,199.734161 271.024567,232.894333 270.972778,266.053833 
	C270.961975,272.958618 266.997070,276.888153 260.123108,276.974426 
	C251.959457,277.076935 243.793564,276.998962 235.143890,276.999084 
z"/>
</svg>