<svg version="1.1" id="Layer_1" xmlns="http://www.w3.org/2000/svg" xmlns:xlink="http://www.w3.org/1999/xlink" x="0px" y="0px"
	 width="100%" viewBox="0 0 1024 1024" enable-background="new 0 0 1024 1024" xml:space="preserve">
<path fill="#F8F8F8" opacity="1.000000" stroke="none" 
	d="
M3.000000,1.000000 
	C343.621368,1.000000 684.242737,1.000000 1024.932129,1.000000 
	C1024.932129,342.242676 1024.932129,683.485352 1024.932129,1025.000000 
	C684.635803,1025.000000 344.271545,1025.000000 3.453737,1024.546387 
	C3.000139,683.061829 3.000070,342.030914 3.000000,1.000000 
M727.266602,72.635483 
	C724.275635,72.492500 721.284668,72.224876 718.293701,72.224449 
	C582.003296,72.204887 445.712891,72.202728 309.422485,72.243645 
	C305.950134,72.244690 302.477936,72.749161 298.126007,72.952499 
	C291.046295,73.970367 283.893219,74.629829 276.898071,76.060921 
	C197.069016,92.392662 139.467667,160.238846 140.612930,243.696915 
	C141.380981,299.667328 140.721680,355.656952 140.820587,411.637787 
	C140.826462,414.969177 140.034393,416.399841 136.637680,417.526520 
	C101.041962,429.333252 74.019783,451.392090 56.830788,485.038788 
	C47.405472,503.488434 43.660805,523.296021 41.791676,544.278320 
	C41.542923,544.877075 41.079124,545.475098 41.076916,546.074768 
	C41.023724,560.510620 40.990269,574.946960 41.080303,589.382385 
	C41.085739,590.253662 42.145832,591.118469 42.864281,592.736023 
	C42.814564,593.495239 42.764851,594.254395 42.023308,595.223145 
	C42.254181,597.477539 42.485054,599.731995 42.858200,602.657349 
	C42.809933,603.109497 42.761665,603.561707 41.976097,604.260681 
	C41.652046,605.143555 41.047295,606.025757 41.045063,606.909485 
	C40.991566,628.058655 40.974926,649.208130 41.069710,670.356995 
	C41.075500,671.649414 42.056404,672.937561 42.786255,674.849243 
	C42.714333,675.490845 42.642406,676.132507 41.830051,677.225708 
	C42.079105,679.223145 42.328159,681.220520 42.784004,683.908997 
	C42.708794,684.858887 42.633583,685.808777 41.786106,687.281311 
	C41.524097,688.546692 41.035427,689.811646 41.033428,691.077454 
	C40.989849,718.673401 40.976421,746.269531 41.067791,773.865234 
	C41.072617,775.322205 42.053009,776.775940 42.790901,779.117981 
	C42.726315,790.684448 42.661732,802.250916 41.885090,814.168457 
	C42.124626,815.170410 42.364166,816.172302 42.791634,817.958374 
	C42.720539,819.560913 42.649445,821.163391 41.807766,823.264771 
	C42.080532,826.908936 42.353298,830.553040 42.796638,834.941284 
	C42.752403,836.207092 42.708168,837.472900 41.893101,839.189392 
	C42.125694,841.867004 42.358284,844.544678 42.788311,847.962341 
	C42.713562,849.227905 42.638809,850.493469 41.789822,852.279724 
	C41.533134,858.316223 41.204739,864.351501 41.094810,870.390625 
	C41.077755,871.327942 42.059788,872.283386 42.787159,874.110046 
	C42.730480,878.376099 42.673805,882.642151 42.072941,887.072083 
	C42.257874,887.407715 42.442806,887.743408 42.811295,888.857666 
	C43.474537,908.164673 50.045151,925.378174 61.931602,940.427795 
	C81.609520,965.342285 107.843582,976.107971 139.262955,976.096863 
	C390.913849,976.008057 642.564758,976.052795 894.215637,976.005432 
	C899.027527,976.004578 903.878235,975.659790 908.645081,975.000122 
	C948.897278,969.429138 987.162964,933.187378 987.040100,886.268005 
	C986.740662,771.942627 986.948242,657.615967 986.771423,543.290100 
	C986.758850,535.181641 986.019653,526.919678 984.357483,518.993530 
	C973.640198,467.886719 942.370239,434.834137 893.786438,417.464813 
	C890.127197,416.156586 889.031799,414.655060 889.040527,410.863617 
	C889.166260,356.200684 889.155884,301.537354 889.079590,246.874207 
	C889.070068,240.057236 888.862915,233.201324 888.127808,226.430725 
	C881.713257,167.354858 852.540161,123.050743 800.795410,94.006470 
	C778.311890,81.386497 753.911987,74.305557 727.266602,72.635483 
z"/>
<path fill="#FEFEFD" opacity="1.000000" stroke="none" 
	d="
M2.500000,1.000000 
	C3.000070,342.030914 3.000139,683.061829 3.000103,1024.546387 
	C2.333329,1024.666626 1.216360,1024.452026 1.090948,1023.976013 
	C0.803548,1022.885071 1.000000,1021.666687 1.000000,1020.500000 
	C1.000000,682.166748 0.998697,343.833496 1.041233,5.500249 
	C1.041422,4.000126 1.666667,2.500081 2.500000,1.000000 
z"/>
<path fill="#757575" opacity="1.000000" stroke="none" 
	d="
M42.558372,686.758667 
	C42.633583,685.808777 42.708794,684.858887 42.771561,683.107666 
	C42.696239,680.462280 42.633362,678.618164 42.570484,676.774109 
	C42.642406,676.132507 42.714333,675.490845 42.777901,674.115234 
	C42.750828,650.258728 42.732113,627.136292 42.713394,604.013855 
	C42.761665,603.561707 42.809933,603.109497 42.855247,601.890015 
	C42.806576,599.086304 42.760853,597.049988 42.715134,595.013611 
	C42.764851,594.254395 42.814564,593.495239 42.858673,591.898010 
	C42.757671,575.292786 42.662281,559.525513 42.566891,543.758301 
	C43.660805,523.296021 47.405472,503.488434 56.830788,485.038788 
	C74.019783,451.392090 101.041962,429.333252 136.637680,417.526520 
	C140.034393,416.399841 140.826462,414.969177 140.820587,411.637787 
	C140.721680,355.656952 141.380981,299.667328 140.612930,243.696915 
	C139.467667,160.238846 197.069016,92.392662 276.898071,76.060921 
	C283.893219,74.629829 291.046295,73.970367 298.875824,73.260345 
	C301.104950,73.694435 302.584229,73.931068 304.063538,73.931244 
	C443.643585,73.948151 583.223633,73.950592 722.803711,73.906197 
	C724.539368,73.905647 726.274902,73.290436 728.010498,72.962143 
	C753.911987,74.305557 778.311890,81.386497 800.795410,94.006470 
	C852.540161,123.050743 881.713257,167.354858 888.127808,226.430725 
	C888.862915,233.201324 889.070068,240.057236 889.079590,246.874207 
	C889.155884,301.537354 889.166260,356.200684 889.040527,410.863617 
	C889.031799,414.655060 890.127197,416.156586 893.786438,417.464813 
	C942.370239,434.834137 973.640198,467.886719 984.357483,518.993530 
	C986.019653,526.919678 986.758850,535.181641 986.771423,543.290100 
	C986.948242,657.615967 986.740662,771.942627 987.040100,886.268005 
	C987.162964,933.187378 948.897278,969.429138 908.645081,975.000122 
	C903.878235,975.659790 899.027527,976.004578 894.215637,976.005432 
	C642.564758,976.052795 390.913849,976.008057 139.262955,976.096863 
	C107.843582,976.107971 81.609520,965.342285 61.931602,940.427795 
	C50.045151,925.378174 43.474537,908.164673 42.772202,888.175293 
	C42.694450,887.298035 42.655792,887.103088 42.617130,886.908203 
	C42.673805,882.642151 42.730480,878.376099 42.776001,873.243164 
	C42.697918,865.503906 42.630993,858.631470 42.564060,851.759033 
	C42.638809,850.493469 42.713562,849.227905 42.779625,847.203979 
	C42.735268,843.876709 42.699604,841.307678 42.663933,838.738708 
	C42.708168,837.472900 42.752403,836.207092 42.798294,834.172241 
	C42.726078,829.857422 42.652210,826.311646 42.578346,822.765930 
	C42.649445,821.163391 42.720539,819.560913 42.778839,817.150024 
	C42.709747,815.500305 42.653446,814.658813 42.597145,813.817383 
	C42.661732,802.250916 42.726315,790.684448 42.777653,778.239746 
	C42.803848,767.900940 42.902218,758.440186 42.870667,748.979919 
	C42.801491,728.239380 42.666489,707.499084 42.558372,686.758667 
M271.509094,452.995758 
	C274.042236,455.850983 276.674530,458.624939 279.092834,461.574371 
	C298.801727,485.611206 308.150970,513.438171 308.950226,544.276611 
	C309.235107,555.267456 308.995789,566.271790 308.997986,577.269958 
	C308.999329,584.028320 309.001251,584.033875 315.705963,584.033997 
	C448.683807,584.035767 581.661682,584.036194 714.639526,584.036804 
	C715.306091,584.036804 715.984131,583.956421 716.637268,584.050110 
	C720.300293,584.575378 721.125427,582.766785 721.066101,579.428650 
	C720.894287,569.766663 721.137817,560.097351 720.970703,550.435181 
	C720.725342,536.244873 722.394836,522.337891 726.003723,508.600586 
	C732.180664,485.087982 744.755737,465.311584 762.057739,448.716980 
	C778.429749,433.014404 798.155579,422.752319 820.279114,417.514587 
	C824.681335,416.472412 826.102173,414.779510 826.089478,410.223267 
	C825.931885,353.733093 826.014587,297.242340 825.935303,240.751846 
	C825.928772,236.128448 825.507935,231.452850 824.741211,226.892029 
	C820.401489,201.077347 808.854797,179.237640 788.719727,162.162369 
	C768.625916,145.122116 745.586731,135.143524 719.142700,135.102478 
	C582.832458,134.890854 446.521545,134.964218 310.211090,135.118820 
	C302.990601,135.127014 295.648376,136.220901 288.575317,137.775879 
	C265.861237,142.769424 246.832550,154.157059 231.025162,171.321518 
	C213.211975,190.664017 203.639297,213.671326 203.267746,239.474716 
	C202.444885,296.620026 203.042358,353.785400 202.926926,410.942322 
	C202.919067,414.830017 204.068604,416.405548 207.964417,417.272797 
	C232.449493,422.723297 253.567093,434.357605 271.509094,452.995758 
M719.111633,912.895447 
	C719.741882,910.893616 720.921082,908.892395 720.923218,906.889893 
	C721.014832,822.250549 720.960327,737.611145 721.107361,652.971985 
	C721.115784,648.107849 719.721008,646.924072 714.970886,646.928589 
	C581.680664,647.054260 448.390289,647.052856 315.100067,646.932373 
	C310.445679,646.928162 308.875366,647.929626 308.884308,652.897034 
	C309.037109,737.702759 309.034515,822.508911 308.884491,907.314636 
	C308.876068,912.074646 310.371918,913.056396 314.816833,913.052734 
	C449.273376,912.942078 583.730042,912.959351 719.111633,912.895447 
M799.816040,500.332489 
	C787.616394,514.688599 784.099548,531.822144 784.044434,550.014221 
	C783.980347,571.174011 783.979431,592.334351 784.042053,613.494141 
	C784.332153,711.529114 784.663879,809.564026 784.921509,907.599060 
	C784.930420,910.991821 785.074280,913.120667 789.582947,913.060181 
	C825.532837,912.577637 861.485596,912.232483 897.438477,912.079041 
	C913.845276,912.009033 924.169495,897.061035 924.145081,884.335510 
	C923.926208,770.205322 924.026306,656.074463 923.973877,541.943848 
	C923.972107,538.153137 923.697571,534.292480 922.956360,530.583069 
	C916.308594,497.312378 889.908325,475.172424 856.207336,474.157043 
	C833.667664,473.477905 814.864441,482.469025 799.816040,500.332489 
M117.417885,907.184937 
	C122.995972,910.937012 129.105713,912.342834 135.841187,912.105347 
	C144.262543,911.808411 152.702911,912.006592 161.134644,912.058960 
	C172.071655,912.126831 183.008484,912.240540 193.944931,912.372742 
	C208.750854,912.551697 223.556061,912.795288 238.362183,912.953979 
	C244.996307,913.025024 244.998444,912.961914 244.998428,906.130920 
	C244.998123,788.662537 245.012695,671.194092 244.955688,553.725708 
	C244.952560,547.266235 244.547775,540.790283 243.993759,534.350952 
	C242.622070,518.407776 235.631393,504.771484 224.244553,494.077362 
	C208.001862,478.822845 188.585999,471.515137 165.866806,474.934052 
	C130.677322,480.229492 106.255959,508.502777 106.139305,543.362854 
	C105.759621,656.831055 106.004326,770.301270 105.975319,883.770752 
	C105.972908,893.205261 109.628990,900.816650 117.417885,907.184937 
z"/>
<path fill="#898889" opacity="1.000000" stroke="none" 
	d="
M727.638550,72.798813 
	C726.274902,73.290436 724.539368,73.905647 722.803711,73.906197 
	C583.223633,73.950592 443.643585,73.948151 304.063538,73.931244 
	C302.584229,73.931068 301.104950,73.694435 299.315643,73.293518 
	C302.477936,72.749161 305.950134,72.244690 309.422485,72.243645 
	C445.712891,72.202728 582.003296,72.204887 718.293701,72.224449 
	C721.284668,72.224876 724.275635,72.492500 727.638550,72.798813 
z"/>
<path fill="#FEFEFD" opacity="1.000000" stroke="none" 
	d="
M42.172237,687.020020 
	C42.666489,707.499084 42.801491,728.239380 42.870667,748.979919 
	C42.902218,758.440186 42.803848,767.900940 42.671822,777.796265 
	C42.053009,776.775940 41.072617,775.322205 41.067791,773.865234 
	C40.976421,746.269531 40.989849,718.673401 41.033428,691.077454 
	C41.035427,689.811646 41.524097,688.546692 42.172237,687.020020 
z"/>
<path fill="#FEFEFD" opacity="1.000000" stroke="none" 
	d="
M42.344746,604.137268 
	C42.732113,627.136292 42.750828,650.258728 42.676575,673.804443 
	C42.056404,672.937561 41.075500,671.649414 41.069710,670.356995 
	C40.974926,649.208130 40.991566,628.058655 41.045063,606.909485 
	C41.047295,606.025757 41.652046,605.143555 42.344746,604.137268 
z"/>
<path fill="#FEFEFD" opacity="1.000000" stroke="none" 
	d="
M42.179283,544.018311 
	C42.662281,559.525513 42.757671,575.292786 42.784119,591.523132 
	C42.145832,591.118469 41.085739,590.253662 41.080303,589.382385 
	C40.990269,574.946960 41.023724,560.510620 41.076916,546.074768 
	C41.079124,545.475098 41.542923,544.877075 42.179283,544.018311 
z"/>
<path fill="#FEFEFD" opacity="1.000000" stroke="none" 
	d="
M42.176941,852.019409 
	C42.630993,858.631470 42.697918,865.503906 42.672321,872.803406 
	C42.059788,872.283386 41.077755,871.327942 41.094810,870.390625 
	C41.204739,864.351501 41.533134,858.316223 42.176941,852.019409 
z"/>
<path fill="#FEFEFD" opacity="1.000000" stroke="none" 
	d="
M42.193054,823.015381 
	C42.652210,826.311646 42.726078,829.857422 42.713005,833.800171 
	C42.353298,830.553040 42.080532,826.908936 42.193054,823.015381 
z"/>
<path fill="#FEFEFD" opacity="1.000000" stroke="none" 
	d="
M42.369217,595.118408 
	C42.760853,597.049988 42.806576,599.086304 42.784111,601.554565 
	C42.485054,599.731995 42.254181,597.477539 42.369217,595.118408 
z"/>
<path fill="#FEFEFD" opacity="1.000000" stroke="none" 
	d="
M42.278519,838.964050 
	C42.699604,841.307678 42.735268,843.876709 42.680904,846.833984 
	C42.358284,844.544678 42.125694,841.867004 42.278519,838.964050 
z"/>
<path fill="#FEFEFD" opacity="1.000000" stroke="none" 
	d="
M42.200272,676.999878 
	C42.633362,678.618164 42.696239,680.462280 42.668167,682.762146 
	C42.328159,681.220520 42.079105,679.223145 42.200272,676.999878 
z"/>
<path fill="#FEFEFD" opacity="1.000000" stroke="none" 
	d="
M42.241119,813.992920 
	C42.653446,814.658813 42.709747,815.500305 42.684875,816.757996 
	C42.364166,816.172302 42.124626,815.170410 42.241119,813.992920 
z"/>
<path fill="#FEFEFD" opacity="1.000000" stroke="none" 
	d="
M42.345036,886.990112 
	C42.655792,887.103088 42.694450,887.298035 42.680424,887.786011 
	C42.442806,887.743408 42.257874,887.407715 42.345036,886.990112 
z"/>
<path fill="#939393" opacity="1.000000" stroke="none" 
	d="
M271.258728,452.744781 
	C253.567093,434.357605 232.449493,422.723297 207.964417,417.272797 
	C204.068604,416.405548 202.919067,414.830017 202.926926,410.942322 
	C203.042358,353.785400 202.444885,296.620026 203.267746,239.474716 
	C203.639297,213.671326 213.211975,190.664017 231.025162,171.321518 
	C246.832550,154.157059 265.861237,142.769424 288.575317,137.775879 
	C295.648376,136.220901 302.990601,135.127014 310.211090,135.118820 
	C446.521545,134.964218 582.832458,134.890854 719.142700,135.102478 
	C745.586731,135.143524 768.625916,145.122116 788.719727,162.162369 
	C808.854797,179.237640 820.401489,201.077347 824.741211,226.892029 
	C825.507935,231.452850 825.928772,236.128448 825.935303,240.751846 
	C826.014587,297.242340 825.931885,353.733093 826.089478,410.223267 
	C826.102173,414.779510 824.681335,416.472412 820.279114,417.514587 
	C798.155579,422.752319 778.429749,433.014404 762.057739,448.716980 
	C744.755737,465.311584 732.180664,485.087982 726.003723,508.600586 
	C722.394836,522.337891 720.725342,536.244873 720.970703,550.435181 
	C721.137817,560.097351 720.894287,569.766663 721.066101,579.428650 
	C721.125427,582.766785 720.300293,584.575378 716.637268,584.050110 
	C715.984131,583.956421 715.306091,584.036804 714.639526,584.036804 
	C581.661682,584.036194 448.683807,584.035767 315.705963,584.033997 
	C309.001251,584.033875 308.999329,584.028320 308.997986,577.269958 
	C308.995789,566.271790 309.235107,555.267456 308.950226,544.276611 
	C308.150970,513.438171 298.801727,485.611206 279.092834,461.574371 
	C276.674530,458.624939 274.042236,455.850983 271.258728,452.744781 
z"/>
<path fill="#939393" opacity="1.000000" stroke="none" 
	d="
M718.649170,912.926025 
	C583.730042,912.959351 449.273376,912.942078 314.816833,913.052734 
	C310.371918,913.056396 308.876068,912.074646 308.884491,907.314636 
	C309.034515,822.508911 309.037109,737.702759 308.884308,652.897034 
	C308.875366,647.929626 310.445679,646.928162 315.100067,646.932373 
	C448.390289,647.052856 581.680664,647.054260 714.970886,646.928589 
	C719.721008,646.924072 721.115784,648.107849 721.107361,652.971985 
	C720.960327,737.611145 721.014832,822.250549 720.923218,906.889893 
	C720.921082,908.892395 719.741882,910.893616 718.649170,912.926025 
z"/>
<path fill="#939393" opacity="1.000000" stroke="none" 
	d="
M799.984009,500.018524 
	C814.864441,482.469025 833.667664,473.477905 856.207336,474.157043 
	C889.908325,475.172424 916.308594,497.312378 922.956360,530.583069 
	C923.697571,534.292480 923.972107,538.153137 923.973877,541.943848 
	C924.026306,656.074463 923.926208,770.205322 924.145081,884.335510 
	C924.169495,897.061035 913.845276,912.009033 897.438477,912.079041 
	C861.485596,912.232483 825.532837,912.577637 789.582947,913.060181 
	C785.074280,913.120667 784.930420,910.991821 784.921509,907.599060 
	C784.663879,809.564026 784.332153,711.529114 784.042053,613.494141 
	C783.979431,592.334351 783.980347,571.174011 784.044434,550.014221 
	C784.099548,531.822144 787.616394,514.688599 799.984009,500.018524 
z"/>
<path fill="#939393" opacity="1.000000" stroke="none" 
	d="
M117.089600,907.023071 
	C109.628990,900.816650 105.972908,893.205261 105.975319,883.770752 
	C106.004326,770.301270 105.759621,656.831055 106.139305,543.362854 
	C106.255959,508.502777 130.677322,480.229492 165.866806,474.934052 
	C188.585999,471.515137 208.001862,478.822845 224.244553,494.077362 
	C235.631393,504.771484 242.622070,518.407776 243.993759,534.350952 
	C244.547775,540.790283 244.952560,547.266235 244.955688,553.725708 
	C245.012695,671.194092 244.998123,788.662537 244.998428,906.130920 
	C244.998444,912.961914 244.996307,913.025024 238.362183,912.953979 
	C223.556061,912.795288 208.750854,912.551697 193.944931,912.372742 
	C183.008484,912.240540 172.071655,912.126831 161.134644,912.058960 
	C152.702911,912.006592 144.262543,911.808411 135.841187,912.105347 
	C129.105713,912.342834 122.995972,910.937012 117.089600,907.023071 
z"/>
</svg>